<svg width="32" height="32" viewBox="0 0 32 32" fill="none" xmlns="http://www.w3.org/2000/svg">
<path d="M21.1763 1.83325C21.1959 2.12591 21.2335 2.41658 21.2886 2.70044L21.2896 2.70728C21.4978 3.7109 21.9207 4.67097 22.5444 5.51978C23.1656 6.36499 23.9651 7.08532 24.8882 7.63403V7.63501C26.0711 8.34909 27.4322 8.762 28.8335 8.84204V12.8528C26.3521 12.7696 23.9474 12.0206 21.9282 10.6965L21.1538 10.1887V21.3538C21.1538 23.1379 20.5608 24.8834 19.4438 26.3577C18.3256 27.8334 16.7405 28.9688 14.8931 29.6028C13.0449 30.2369 11.0287 30.3402 9.11475 29.8918C7.19922 29.4431 5.48697 28.4757 4.19482 27.1223C2.90562 25.7719 2.10992 24.0889 1.89209 22.3127C1.67491 20.541 2.06242 18.7483 2.98975 17.1721C3.91617 15.5977 5.35482 14.3127 7.11768 13.4934C8.74881 12.7354 10.572 12.4208 12.3872 12.5735V16.6526C11.5484 16.5154 10.6818 16.5685 9.86572 16.8196C8.84248 17.1345 7.9421 17.7413 7.30713 18.554C6.67127 19.3678 6.32555 20.3589 6.33252 21.3801C6.33958 22.403 6.7005 23.3816 7.34814 24.1926C7.99697 25.0051 8.90492 25.6003 9.93506 25.9026C10.9638 26.2044 12.0689 26.2049 13.0942 25.8958C14.117 25.5873 15.0243 24.9869 15.6665 24.1741C16.3086 23.3612 16.6616 22.3698 16.6616 21.3538V1.83325H21.1763Z" fill="#434343" stroke="#303030"/>
</svg>
