<svg width="16" height="16" viewBox="0 0 16 16" fill="none" xmlns="http://www.w3.org/2000/svg">
<path d="M0.5 12C0.5 13.1045 1.3955 14 2.5 14H13.5C14.6045 14 15.5 13.1045 15.5 12V7.5H0.5V12Z" fill="#C62D25"/>
<path d="M13.5 2H2.5C1.3955 2 0.5 2.8955 0.5 4V8H15.5V4C15.5 2.8955 14.6045 2 13.5 2Z" fill="white"/>
<path d="M1.158 13.4735L8 7.99999L1.158 2.52649C0.7565 2.89249 0.5 3.41449 0.5 3.99999V12C0.5 12.586 0.7565 13.108 1.158 13.4735Z" fill="#1E427B"/>
<path opacity="0.15" d="M13.5 2H2.5C1.3955 2 0.5 2.8955 0.5 4V12C0.5 13.1045 1.3955 14 2.5 14H13.5C14.6045 14 15.5 13.1045 15.5 12V4C15.5 2.8955 14.6045 2 13.5 2ZM15 12C15 12.827 14.327 13.5 13.5 13.5H2.5C1.673 13.5 1 12.827 1 12V4C1 3.173 1.673 2.5 2.5 2.5H13.5C14.327 2.5 15 3.173 15 4V12Z" fill="black"/>
<path opacity="0.2" d="M13.5 2.5H2.5C1.6715 2.5 1 3.1715 1 4V4.5C1 3.6715 1.6715 3 2.5 3H13.5C14.3285 3 15 3.6715 15 4.5V4C15 3.1715 14.3285 2.5 13.5 2.5Z" fill="white"/>
</svg>
