<svg width="16" height="16" viewBox="0 0 16 16" fill="none" xmlns="http://www.w3.org/2000/svg">
<path d="M13.5 2H2.5C1.39543 2 0.5 2.89543 0.5 4V12C0.5 13.1046 1.39543 14 2.5 14H13.5C14.6046 14 15.5 13.1046 15.5 12V4C15.5 2.89543 14.6046 2 13.5 2Z" fill="#071B65"/>
<path d="M2.55045 2H2.49995C1.50945 2 0.692447 2.722 0.533447 3.667L13.4494 14H13.4999C14.4904 14 15.3074 13.278 15.4664 12.333L2.55045 2Z" fill="white"/>
<path d="M11.125 9.50001H9.875L14.842 13.4735C15.0355 13.297 15.194 13.085 15.3065 12.845L11.125 9.50001Z" fill="#B92932"/>
<path d="M0.693481 3.15449L4.87498 6.49999H6.12498L1.15798 2.52649C0.964481 2.70299 0.805981 2.91449 0.693481 3.15449Z" fill="#B92932"/>
<path d="M2.49995 14H2.55045L15.4664 3.667C15.3074 2.7215 14.4904 2 13.4999 2H13.4494L0.533447 12.333C0.692447 13.2785 1.50945 14 2.49995 14Z" fill="white"/>
<path d="M9.5 2H6.5V14H9.5V2Z" fill="white"/>
<path d="M15.5 6.5H0.5V9.5H15.5V6.5Z" fill="white"/>
<path d="M9 2H7V14H9V2Z" fill="#B92932"/>
<path d="M15.5 9V7L0.5 7V9H15.5Z" fill="#B92932"/>
<path d="M14.111 2.10498L9.5 5.79298V6.49998H9.875L14.8465 2.52998C14.637 2.33798 14.3875 2.19448 14.111 2.10498Z" fill="#B92932"/>
<path d="M1.16394 13.4785C1.37094 13.6655 1.61594 13.8065 1.88744 13.8945L6.49994 10.2045V9.50049H6.12494L1.16394 13.4785Z" fill="#B92932"/>
<path opacity="0.15" d="M13.5 2H2.5C1.3955 2 0.5 2.8955 0.5 4V12C0.5 13.1045 1.3955 14 2.5 14H13.5C14.6045 14 15.5 13.1045 15.5 12V4C15.5 2.8955 14.6045 2 13.5 2ZM15 12C15 12.827 14.327 13.5 13.5 13.5H2.5C1.673 13.5 1 12.827 1 12V4C1 3.173 1.673 2.5 2.5 2.5H13.5C14.327 2.5 15 3.173 15 4V12Z" fill="black"/>
<path opacity="0.2" d="M13.5 2.5H2.5C1.6715 2.5 1 3.1715 1 4V4.5C1 3.6715 1.6715 3 2.5 3H13.5C14.3285 3 15 3.6715 15 4.5V4C15 3.1715 14.3285 2.5 13.5 2.5Z" fill="white"/>
</svg>
