<svg width="16" height="16" viewBox="0 0 16 16" fill="none" xmlns="http://www.w3.org/2000/svg">
<path d="M0.5 5H15.5V11H0.5V5Z" fill="#F1C142"/>
<path d="M2.5 2H13.5C14.604 2 15.5 2.896 15.5 4V5.5H0.5V4C0.5 2.896 1.396 2 2.5 2Z" fill="#A0251E"/>
<path d="M13.5 14L2.5 14C1.396 14 0.5 13.104 0.5 12V10.5L15.5 10.5V12C15.5 13.104 14.604 14 13.5 14Z" fill="#A0251E"/>
<path opacity="0.15" d="M13.5 2H2.5C1.3955 2 0.5 2.8955 0.5 4V12C0.5 13.1045 1.3955 14 2.5 14H13.5C14.6045 14 15.5 13.1045 15.5 12V4C15.5 2.8955 14.6045 2 13.5 2ZM15 12C15 12.827 14.327 13.5 13.5 13.5H2.5C1.673 13.5 1 12.827 1 12V4C1 3.173 1.673 2.5 2.5 2.5H13.5C14.327 2.5 15 3.173 15 4V12Z" fill="#5A5A5A"/>
<path opacity="0.2" d="M13.5 2.5H2.5C1.6715 2.5 1 3.1715 1 4V4.5C1 3.6715 1.6715 3 2.5 3H13.5C14.3285 3 15 3.6715 15 4.5V4C15 3.1715 14.3285 2.5 13.5 2.5Z" fill="white"/>
<path d="M6.3068 6.54537C6.3398 6.52987 6.3343 6.47538 6.2988 6.46688C6.3273 6.44338 6.3088 6.39188 6.2713 6.39288C6.2913 6.36438 6.2653 6.32088 6.2303 6.32788C6.2408 6.29688 6.2093 6.26437 6.1783 6.27537C6.1833 6.24137 6.1428 6.21588 6.1148 6.23488C6.1168 6.20088 6.0743 6.17888 6.0478 6.20038C6.0428 6.16488 5.9928 6.15288 5.9728 6.18288C5.9658 6.14888 5.9173 6.13938 5.8983 6.16888C5.8848 6.14138 5.8413 6.14037 5.8263 6.16687C5.8113 6.14337 5.7728 6.14438 5.7583 6.16788C5.7493 6.15388 5.7298 6.14588 5.7133 6.15088C5.7178 6.11838 5.6803 6.09338 5.6523 6.10988C5.6533 6.07488 5.6088 6.05438 5.5833 6.07788C5.5768 6.04588 5.5318 6.03438 5.5113 6.05988C5.5013 6.02837 5.4543 6.02237 5.4373 6.05137C5.4193 6.02337 5.3728 6.03038 5.3638 6.06238C5.3433 6.03488 5.2963 6.04688 5.2908 6.08038C5.2853 6.07638 5.2793 6.07338 5.2723 6.07238C5.2753 6.06838 5.2773 6.06438 5.2798 6.05988H5.2808C5.3098 6.00638 5.2828 5.93187 5.2278 5.91087V5.86188H5.2773V5.78487H5.2278V5.73438H5.1523V5.78487H5.1028V5.86188H5.1523V5.90987C5.0958 5.92987 5.0678 6.00538 5.0973 6.05938H5.0983C5.1003 6.06338 5.1028 6.06787 5.1053 6.07137C5.0978 6.07237 5.0908 6.07537 5.0853 6.07987C5.0798 6.04637 5.0323 6.03437 5.0123 6.06187C5.0033 6.02987 4.9568 6.02288 4.9388 6.05088C4.9218 6.02238 4.8748 6.02788 4.8648 6.05938C4.8443 6.03338 4.7993 6.04537 4.7928 6.07737C4.7673 6.05387 4.7233 6.07438 4.7238 6.10938C4.6958 6.09288 4.6583 6.11787 4.6628 6.15037C4.6458 6.14537 4.6268 6.15338 4.6173 6.16738C4.6028 6.14388 4.5643 6.14288 4.5493 6.16638C4.5343 6.13938 4.4908 6.14088 4.4778 6.16838C4.4593 6.13888 4.4103 6.14837 4.4033 6.18237C4.3838 6.15237 4.3333 6.16387 4.3283 6.19987C4.3018 6.17837 4.2593 6.19987 4.2613 6.23438C4.2333 6.21538 4.1928 6.24088 4.1978 6.27488C4.1668 6.26438 4.1353 6.29687 4.1458 6.32737C4.1208 6.32287 4.0978 6.34388 4.0978 6.36938C4.0978 6.37788 4.1003 6.38588 4.1048 6.39288C4.0673 6.39188 4.0493 6.44338 4.0773 6.46688C4.0418 6.47538 4.0363 6.52937 4.0693 6.54537C4.0388 6.56287 4.0458 6.61437 4.0803 6.62238C4.0738 6.62988 4.0698 6.63938 4.0698 6.64988C4.0698 6.67088 4.0848 6.68837 4.1043 6.69187C4.0928 6.71587 4.1088 6.74688 4.1343 6.75087C4.1278 6.76587 4.1283 6.78737 4.1283 6.80387C4.1733 6.79437 4.2283 6.80688 4.2478 6.85888C4.2403 6.89288 4.2803 6.93688 4.3168 6.93188C4.3468 6.97438 4.3833 7.01437 4.4423 7.03038C4.4318 7.07687 4.4743 7.07687 4.5038 7.08938C4.4973 7.09738 4.4823 7.12088 4.4763 7.12988C4.4883 7.13638 4.5198 7.15038 4.5328 7.15538C4.5353 7.16488 4.5348 7.16938 4.5348 7.17088C4.5803 7.42138 5.8018 7.42187 5.8428 7.17037V7.16937C5.8428 7.16937 5.8448 7.17088 5.8448 7.17138C5.8448 7.16988 5.8443 7.16588 5.8468 7.15588L5.9058 7.13488L5.8748 7.08988C5.9028 7.07588 5.9473 7.07738 5.9363 7.03038C5.9958 7.01437 6.0328 6.97438 6.0628 6.93138C6.0993 6.93638 6.1393 6.89238 6.1318 6.85838C6.1513 6.80638 6.2068 6.79388 6.2513 6.80338C6.2513 6.78588 6.2523 6.76438 6.2448 6.74888C6.2668 6.74188 6.2798 6.71338 6.2693 6.69138C6.3003 6.68688 6.3148 6.64488 6.2933 6.62188C6.3278 6.61388 6.3348 6.56188 6.3043 6.54488L6.3068 6.54537ZM6.1588 6.48838C6.1588 6.51288 6.1528 6.53738 6.1418 6.55888C6.0428 6.49038 5.9033 6.43988 5.7948 6.45188C5.7938 6.44738 5.7918 6.44338 5.7893 6.43988C5.7893 6.43988 5.7893 6.43938 5.7893 6.43888C5.8213 6.42838 5.8263 6.37888 5.7968 6.36238C5.8208 6.34638 5.8193 6.30587 5.7943 6.29187C5.9583 6.27237 6.1588 6.33688 6.1588 6.48838ZM5.6808 6.35087C5.6808 6.38237 5.6708 6.41287 5.6538 6.43837C5.5168 6.40887 5.4478 6.35388 5.2953 6.34588C5.2918 6.30488 5.2928 6.26037 5.2898 6.21887C5.4128 6.12387 5.6943 6.18787 5.6808 6.35087ZM5.0853 6.26888C5.0843 6.29388 5.0838 6.31988 5.0818 6.34438C4.9308 6.35088 4.8573 6.40537 4.7223 6.43687C4.5923 6.23387 4.9298 6.09887 5.0873 6.21887C5.0863 6.23537 5.0848 6.25188 5.0853 6.26888ZM4.5623 6.32737C4.5623 6.34137 4.5693 6.35388 4.5793 6.36188C4.5503 6.37838 4.5548 6.42788 4.5868 6.43788C4.5868 6.43788 4.5868 6.43838 4.5868 6.43888C4.5843 6.44238 4.5828 6.44638 4.5813 6.45088C4.4718 6.43888 4.3338 6.48438 4.2323 6.55387C4.1548 6.36537 4.3938 6.26588 4.5813 6.29138C4.5698 6.29888 4.5618 6.31187 4.5618 6.32737H4.5623ZM4.5383 7.16888V7.16988C4.5383 7.16988 4.5373 7.16988 4.5368 7.17088C4.5368 7.17038 4.5378 7.16888 4.5383 7.16888Z" fill="#9B8028"/>
<path d="M7.06647 8.42804C7.20397 8.10304 7.16697 8.17404 6.90697 8.03454V7.59804C6.98147 7.54854 6.85997 7.53754 6.93197 7.48054H6.96797V7.31104H6.47297V7.48054H6.51047C6.57847 7.53154 6.46497 7.55354 6.53547 7.59804V7.97804C6.27347 7.97454 6.14997 8.01104 6.19597 8.26604H6.21546L6.22346 8.28404C6.29346 8.25254 6.40947 8.23053 6.53547 8.22453V8.33654C6.34347 8.35104 6.32547 8.64054 6.53547 8.73654V9.38204C6.50897 9.39054 6.50097 9.42653 6.52347 9.44353C6.52697 9.47603 6.49447 9.48953 6.46697 9.48503C6.46697 9.49803 6.46697 9.60354 6.46697 9.61954C6.44497 9.63154 6.41047 9.63454 6.38197 9.63354V9.68754V9.74104V9.79454V9.84854V9.94153C6.61147 9.90754 6.82946 9.90754 7.05846 9.94153V9.63354C7.02996 9.63454 6.99646 9.63154 6.97346 9.61954C6.97346 9.60304 6.97346 9.49904 6.97346 9.48554C6.94646 9.48954 6.91446 9.47704 6.91696 9.44503C6.94096 9.42853 6.93396 9.39104 6.90646 9.38204V8.91604C6.92546 8.92454 6.94297 8.93354 6.95897 8.94254C6.90647 9.00204 6.91297 9.10553 6.97447 9.15703L7.00296 9.13054C7.11396 8.96604 7.20096 8.75904 6.90646 8.68254V8.50753C6.99497 8.49803 7.05097 8.47054 7.06597 8.42854L7.06647 8.42804Z" fill="#9B8028"/>
<path d="M4.17995 8.02907C4.10345 7.99807 3.98495 7.98007 3.85345 7.97807V7.59807C3.90045 7.57757 3.87045 7.54057 3.84695 7.51857C3.85695 7.49957 3.89295 7.49007 3.87495 7.46107H3.89645V7.33057H3.44045V7.46107H3.45995C3.44145 7.49057 3.47945 7.50007 3.48845 7.51857C3.46495 7.53957 3.43445 7.57757 3.48145 7.59807V8.03457C3.15945 8.10107 3.17595 8.40857 3.48145 8.50707V8.68207C3.18645 8.75907 3.27395 8.96557 3.38495 9.13007L3.41345 9.15657C3.47495 9.10507 3.48145 9.00157 3.42895 8.94207C3.44495 8.93307 3.46245 8.92407 3.48145 8.91557V9.38157C3.45395 9.39057 3.44695 9.42807 3.47095 9.44457C3.47345 9.47657 3.44145 9.48907 3.41445 9.48507C3.41445 9.49807 3.41445 9.60307 3.41445 9.61907C3.39195 9.63107 3.35795 9.63457 3.32945 9.63307V9.83357V9.94107C3.55895 9.90707 3.77695 9.90707 4.00545 9.94107V9.84807V9.79407V9.74057V9.68707V9.63307C3.97745 9.63407 3.94345 9.63107 3.92095 9.61907C3.92095 9.60257 3.92095 9.49857 3.92095 9.48457C3.89345 9.48857 3.86145 9.47557 3.86445 9.44307C3.88695 9.42607 3.87945 9.38957 3.85245 9.38107V8.73607C4.06295 8.64007 4.04395 8.35007 3.85245 8.33607V8.22407C4.13995 8.24157 4.25045 8.38107 4.17895 8.02807L4.17995 8.02907Z" fill="#9B8028"/>
<path d="M6.26549 7.2666H4.12549L4.12699 8.5526V9.2951C4.12699 9.5111 4.23999 9.7061 4.42249 9.8046C4.65899 9.9306 4.93449 10.0001 5.19849 10.0001C5.46249 10.0001 5.73049 9.9326 5.97049 9.8046C6.15249 9.7061 6.26599 9.5111 6.26599 9.2951L6.26549 7.2666Z" fill="#A0251E"/>
</svg>
