<svg width="16" height="16" viewBox="0 0 16 16" fill="none" xmlns="http://www.w3.org/2000/svg">
<path d="M0.5 5.5H15.5V10.5H0.5V5.5Z" fill="#204C9E"/>
<path d="M2.5 2H13.5C14.604 2 15.5 2.896 15.5 4V6H0.5V4C0.5 2.896 1.396 2 2.5 2Z" fill="white"/>
<path d="M13.5 14L2.5 14C1.396 14 0.5 13.104 0.5 12V10L15.5 10V12C15.5 13.104 14.604 14 13.5 14Z" fill="#DB362F"/>
<path opacity="0.15" d="M13.5 2H2.5C1.3955 2 0.5 2.8955 0.5 4V12C0.5 13.1045 1.3955 14 2.5 14H13.5C14.6045 14 15.5 13.1045 15.5 12V4C15.5 2.8955 14.6045 2 13.5 2ZM15 12C15 12.827 14.327 13.5 13.5 13.5H2.5C1.673 13.5 1 12.827 1 12V4C1 3.173 1.673 2.5 2.5 2.5H13.5C14.327 2.5 15 3.173 15 4V12Z" fill="black"/>
<path opacity="0.2" d="M13.5 2.5H2.5C1.6715 2.5 1 3.1715 1 4V4.5C1 3.6715 1.6715 3 2.5 3H13.5C14.3285 3 15 3.6715 15 4.5V4C15 3.1715 14.3285 2.5 13.5 2.5Z" fill="white"/>
<path d="M7.82499 5.11597C7.82499 5.11597 7.91399 6.00797 7.91399 7.79247C7.90149 9.61497 6.53849 10.5375 5.53799 11.0225C4.53749 10.5375 3.17499 9.61497 3.16199 7.79247C3.16199 6.00797 3.25099 5.11597 3.25099 5.11597H7.82499Z" fill="#DB362F"/>
<path d="M5.3365 9.97245V7.74145C4.581 7.74145 4.3665 7.80845 4.1405 7.87645C4.1615 7.64845 4.1615 7.41895 4.1405 7.19095C4.3665 7.25945 4.581 7.32595 5.3365 7.32595V6.70595C5.098 6.70595 4.769 6.71545 4.3905 6.84445C4.412 6.61595 4.412 6.38595 4.3905 6.15745C4.769 6.28445 5.098 6.29445 5.3365 6.29445C5.3365 6.11495 5.281 5.72845 5.211 5.40845C5.429 5.42795 5.648 5.42795 5.866 5.40845C5.796 5.72795 5.7405 6.11445 5.7405 6.29445C5.979 6.29445 6.308 6.28495 6.6865 6.15745C6.665 6.38595 6.665 6.61595 6.6865 6.84445C6.308 6.71545 5.979 6.70595 5.7405 6.70595V7.32595C6.496 7.32595 6.7105 7.25895 6.9365 7.19095C6.9155 7.41895 6.9155 7.64845 6.9365 7.87645C6.7105 7.80795 6.496 7.74145 5.7405 7.74145V9.97245H5.3365Z" fill="white"/>
<path d="M5.53801 11.022C6.15851 10.721 6.91851 10.251 7.40901 9.50305C7.40551 9.49605 7.40351 9.48755 7.40051 9.48055C7.12051 8.88855 6.61251 8.79705 6.26651 9.27605C6.22201 9.17155 6.17101 9.07655 6.11451 8.99355C5.71201 8.40305 5.12801 8.52905 4.81001 9.27605C4.66651 9.07755 4.48751 8.96905 4.30301 8.96905C4.04401 8.96905 3.81651 9.18105 3.66901 9.50505C4.16001 10.252 4.91801 10.721 5.53801 11.022Z" fill="#204C9E"/>
<path d="M5.53798 11.1175L5.50048 11.0995C4.82648 10.7725 4.30798 10.402 3.91598 9.96653C3.36448 9.35403 3.08198 8.62303 3.07648 7.79303C3.07648 6.02453 3.16498 5.11653 3.16598 5.10753L3.17348 5.03003H7.90298L7.91048 5.10753C7.91148 5.11653 7.99998 6.02453 7.99998 7.79253C7.99398 8.62303 7.71148 9.35403 7.16048 9.96653C6.76798 10.402 6.24998 10.773 5.57598 11.0995L5.53798 11.1175ZM3.32998 5.20203C3.30948 5.45453 3.24798 6.32503 3.24798 7.79253C3.25348 8.57853 3.52098 9.27153 4.04348 9.85153C4.41348 10.2625 4.90248 10.6145 5.53798 10.927C6.17348 10.6145 6.66248 10.2625 7.03248 9.85153C7.55498 9.27153 7.82248 8.57853 7.82798 7.79203C7.82798 6.32503 7.76698 5.45453 7.74598 5.20203H3.32998Z" fill="white"/>
</svg>
