<svg width="1440" height="29" viewBox="0 0 1440 29" fill="none" xmlns="http://www.w3.org/2000/svg">
<g clip-path="url(#clip0_324_7926)">
<rect y="-0.144531" width="1440" height="32" fill="white"/>
<path d="M348.875 7.85596C538.255 7.85596 628.301 12.3668 716.43 16.8755C804.243 21.368 890.111 25.856 1071.54 25.856C1260.13 25.856 1351.92 19.3779 1439.06 13.8853L1440.94 43.8267C1353.57 49.334 1261.06 55.856 1071.54 55.856C889.42 55.856 803.003 51.3439 714.897 46.8364C627.107 42.3451 537.597 37.856 348.875 37.856C170.553 37.856 83.3777 43.537 1.08887 49.5259L0 34.5649L-1.08887 19.605C81.7763 13.5742 169.692 7.85596 348.875 7.85596Z" fill="#F5F5F5"/>
</g>
<defs>
<clipPath id="clip0_324_7926">
<rect width="1440" height="29" fill="white"/>
</clipPath>
</defs>
</svg>
