<svg width="21" height="20" viewBox="0 0 21 20" fill="none" xmlns="http://www.w3.org/2000/svg">
<path d="M0.5 10H1.5M17.5 10C17.7652 10 18.0196 9.89464 18.2071 9.70711C18.3946 9.51957 18.5 9.26522 18.5 9V5C18.5 4 17.9 2 15.5 2C13.1 2 12.5 4 12.5 5M17.5 10V12C17.5 13.138 16.917 15.248 14.755 15.841M17.5 10H1.5M1.5 10V12C1.5 13.138 2.083 15.248 4.245 15.841M3.5 18L4.245 15.841M4.245 15.841C4.615 15.943 5.032 16 5.5 16H13.5C13.9236 16.0037 14.3457 15.9502 14.755 15.841M15.5 18L14.755 15.841M12.5 5H10.5M12.5 5H14.5" stroke="#767676" stroke-linecap="round" stroke-linejoin="round"/>
</svg>
