<svg width="21" height="17" viewBox="0 0 21 17" fill="none" xmlns="http://www.w3.org/2000/svg">
<path d="M0.5 16.0556V8.27778C0.5 7.62947 0.734126 7.00772 1.15087 6.54929C1.56762 6.09087 2.13285 5.83333 2.72222 5.83333M2.72222 5.83333H18.2778M2.72222 5.83333V2.94444C2.72222 2.29614 2.95635 1.67438 3.3731 1.21596C3.78984 0.757539 4.35507 0.5 4.94444 0.5H16.0556C16.6449 0.5 17.2102 0.757539 17.6269 1.21596C18.0437 1.67438 18.2778 2.29614 18.2778 2.94444V5.83333M18.2778 5.83333C18.8671 5.83333 19.4324 6.09087 19.8491 6.54929C20.2659 7.00772 20.5 7.62947 20.5 8.27778V16.0556M0.5 13.6111H20.5" stroke="#767676" stroke-linecap="round" stroke-linejoin="round"/>
</svg>
