<svg width="17" height="17" viewBox="0 0 17 17" fill="none" xmlns="http://www.w3.org/2000/svg">
<path d="M4.94444 0.5H2.27778C1.80628 0.5 1.3541 0.687301 1.0207 1.0207C0.687301 1.3541 0.5 1.80628 0.5 2.27778V4.94444M16.5 4.94444V2.27778C16.5 1.80628 16.3127 1.3541 15.9793 1.0207C15.6459 0.687301 15.1937 0.5 14.7222 0.5H12.0556M12.0556 16.5H14.7222C15.1937 16.5 15.6459 16.3127 15.9793 15.9793C16.3127 15.6459 16.5 15.1937 16.5 14.7222V12.0556M0.5 12.0556V14.7222C0.5 15.1937 0.687301 15.6459 1.0207 15.9793C1.3541 16.3127 1.80628 16.5 2.27778 16.5H4.94444" stroke="#767676" stroke-linecap="round" stroke-linejoin="round"/>
</svg>
