<svg width="374" height="58" viewBox="0 0 374 58" fill="none" xmlns="http://www.w3.org/2000/svg">
<path d="M2.688 23.6797C2.688 20.9064 3.15733 18.1971 4.096 15.5517C5.07733 12.8637 6.48533 10.4317 8.32 8.25573C10.1547 6.03706 12.416 4.28772 15.104 3.00772C17.792 1.68506 20.8427 1.02372 24.256 1.02372C28.3093 1.02372 31.7653 1.96239 34.624 3.83973C37.5253 5.67439 39.6587 8.04239 41.024 10.9437L37.504 13.1197C36.5227 11.1144 35.2853 9.53572 33.792 8.38372C32.2987 7.18906 30.6987 6.33572 28.992 5.82372C27.328 5.31172 25.664 5.05573 24 5.05573C21.2693 5.05573 18.8587 5.61039 16.768 6.71973C14.6773 7.78639 12.9067 9.23706 11.456 11.0717C10.048 12.8637 8.98133 14.8904 8.256 17.1517C7.53067 19.3704 7.168 21.6317 7.168 23.9357C7.168 26.4531 7.59467 28.8637 8.448 31.1677C9.30133 33.4717 10.496 35.5197 12.032 37.3117C13.568 39.0611 15.36 40.4691 17.408 41.5357C19.4987 42.5597 21.76 43.0717 24.192 43.0717C25.8987 43.0717 27.648 42.7731 29.44 42.1757C31.232 41.5784 32.896 40.6611 34.432 39.4237C36.0107 38.1864 37.2693 36.5864 38.208 34.6237L41.92 36.5437C40.9813 38.8051 39.5307 40.7251 37.568 42.3037C35.6053 43.8824 33.408 45.0771 30.976 45.8877C28.5867 46.6984 26.24 47.1037 23.936 47.1037C20.8213 47.1037 17.9627 46.4424 15.36 45.1197C12.7573 43.7544 10.496 41.9624 8.576 39.7437C6.69867 37.4824 5.248 34.9651 4.224 32.1917C3.2 29.3757 2.688 26.5384 2.688 23.6797ZM45.987 37.1197C45.987 35.0291 46.5843 33.2371 47.779 31.7437C48.9737 30.2077 50.6163 29.0344 52.707 28.2237C54.8403 27.3704 57.2937 26.9437 60.067 26.9437C61.6883 26.9437 63.3737 27.0717 65.123 27.3277C66.8723 27.5837 68.4297 27.9677 69.795 28.4797V25.6637C69.795 22.8477 68.963 20.6077 67.299 18.9437C65.635 17.2797 63.331 16.4477 60.387 16.4477C58.595 16.4477 56.8243 16.7891 55.075 17.4717C53.3683 18.1117 51.5763 19.0717 49.699 20.3517L48.035 17.2797C50.211 15.7864 52.3443 14.6771 54.435 13.9517C56.5257 13.1837 58.659 12.7997 60.835 12.7997C64.931 12.7997 68.1737 13.9731 70.563 16.3197C72.9523 18.6664 74.147 21.9091 74.147 26.0477V41.4717C74.147 42.0691 74.275 42.5171 74.531 42.8157C74.787 43.0717 75.1923 43.2211 75.747 43.2637V46.7197C75.2777 46.7624 74.8723 46.8051 74.531 46.8477C74.1897 46.8904 73.9337 46.8904 73.763 46.8477C72.6963 46.8051 71.8857 46.4637 71.331 45.8237C70.7763 45.1837 70.4777 44.5011 70.435 43.7757L70.371 41.3437C68.8777 43.2637 66.9363 44.7571 64.547 45.8237C62.1577 46.8477 59.7257 47.3597 57.251 47.3597C55.1177 47.3597 53.1763 46.9117 51.427 46.0157C49.7203 45.0771 48.3763 43.8397 47.395 42.3037C46.4563 40.7251 45.987 38.9971 45.987 37.1197ZM68.323 39.6797C68.7923 39.0824 69.155 38.5064 69.411 37.9517C69.667 37.3971 69.795 36.9064 69.795 36.4797V31.6157C68.3443 31.0611 66.8297 30.6344 65.251 30.3357C63.715 30.0371 62.1577 29.8877 60.579 29.8877C57.4643 29.8877 54.947 30.5064 53.027 31.7437C51.107 32.9811 50.147 34.6664 50.147 36.7997C50.147 38.0371 50.467 39.2104 51.107 40.3197C51.747 41.3864 52.6857 42.2824 53.923 43.0077C55.1603 43.6904 56.611 44.0317 58.275 44.0317C60.3657 44.0317 62.307 43.6264 64.099 42.8157C65.9337 42.0051 67.3417 40.9597 68.323 39.6797ZM111.582 46.7197H107.23V28.0957C107.23 24.1704 106.654 21.3117 105.502 19.5197C104.35 17.6851 102.537 16.7677 100.062 16.7677C98.3553 16.7677 96.67 17.1944 95.006 18.0477C93.342 18.8584 91.87 19.9891 90.59 21.4397C89.3527 22.8477 88.4567 24.4691 87.902 26.3037V46.7197H83.55V13.3757H87.518V20.9277C88.414 19.3064 89.5873 17.8984 91.038 16.7037C92.4887 15.4664 94.1313 14.5064 95.966 13.8237C97.8007 13.1411 99.6993 12.7997 101.662 12.7997C103.497 12.7997 105.054 13.1411 106.334 13.8237C107.614 14.5064 108.638 15.4877 109.406 16.7677C110.174 18.0051 110.729 19.5197 111.07 21.3117C111.411 23.0611 111.582 25.0237 111.582 27.1997V46.7197ZM118.174 37.1197C118.174 35.0291 118.772 33.2371 119.967 31.7437C121.161 30.2077 122.804 29.0344 124.895 28.2237C127.028 27.3704 129.481 26.9437 132.255 26.9437C133.876 26.9437 135.561 27.0717 137.311 27.3277C139.06 27.5837 140.617 27.9677 141.983 28.4797V25.6637C141.983 22.8477 141.151 20.6077 139.487 18.9437C137.823 17.2797 135.519 16.4477 132.575 16.4477C130.783 16.4477 129.012 16.7891 127.263 17.4717C125.556 18.1117 123.764 19.0717 121.887 20.3517L120.223 17.2797C122.399 15.7864 124.532 14.6771 126.623 13.9517C128.713 13.1837 130.847 12.7997 133.023 12.7997C137.119 12.7997 140.361 13.9731 142.751 16.3197C145.14 18.6664 146.335 21.9091 146.335 26.0477V41.4717C146.335 42.0691 146.463 42.5171 146.719 42.8157C146.975 43.0717 147.38 43.2211 147.935 43.2637V46.7197C147.465 46.7624 147.06 46.8051 146.719 46.8477C146.377 46.8904 146.121 46.8904 145.951 46.8477C144.884 46.8051 144.073 46.4637 143.519 45.8237C142.964 45.1837 142.665 44.5011 142.623 43.7757L142.559 41.3437C141.065 43.2637 139.124 44.7571 136.735 45.8237C134.345 46.8477 131.913 47.3597 129.439 47.3597C127.305 47.3597 125.364 46.9117 123.615 46.0157C121.908 45.0771 120.564 43.8397 119.583 42.3037C118.644 40.7251 118.174 38.9971 118.174 37.1197ZM140.511 39.6797C140.98 39.0824 141.343 38.5064 141.599 37.9517C141.855 37.3971 141.983 36.9064 141.983 36.4797V31.6157C140.532 31.0611 139.017 30.6344 137.439 30.3357C135.903 30.0371 134.345 29.8877 132.767 29.8877C129.652 29.8877 127.135 30.5064 125.215 31.7437C123.295 32.9811 122.335 34.6664 122.335 36.7997C122.335 38.0371 122.655 39.2104 123.295 40.3197C123.935 41.3864 124.873 42.2824 126.111 43.0077C127.348 43.6904 128.799 44.0317 130.463 44.0317C132.553 44.0317 134.495 43.6264 136.287 42.8157C138.121 42.0051 139.529 40.9597 140.511 39.6797ZM172.378 17.2157C169.476 17.3011 166.916 18.1117 164.698 19.6477C162.522 21.1837 160.986 23.2957 160.09 25.9837V46.7197H155.738V13.3757H159.834V21.3757C160.986 19.0291 162.5 17.1304 164.378 15.6797C166.298 14.2291 168.324 13.4184 170.458 13.2477C170.884 13.2051 171.247 13.1837 171.546 13.1837C171.887 13.1837 172.164 13.2051 172.378 13.2477V17.2157ZM216.762 13.3757L226.554 26.4317L227.066 27.3917L227.578 26.4317L237.306 13.3757H242.234L229.562 30.1437L242.234 46.7197H237.306L227.578 33.7277L227.066 32.8317L226.554 33.7277L216.826 46.7197H211.898L224.506 30.1437L211.898 13.3757H216.762ZM248.884 46.7197V1.27972H268.084C270.046 1.27972 271.838 1.68506 273.46 2.49572C275.081 3.30639 276.489 4.41572 277.684 5.82372C278.921 7.18906 279.86 8.72506 280.5 10.4317C281.182 12.0957 281.524 13.8024 281.524 15.5517C281.524 17.7277 281.097 19.7757 280.244 21.6957C279.433 23.6157 278.26 25.2371 276.724 26.5597C275.23 27.8824 273.46 28.7571 271.412 29.1837L282.548 46.7197H277.492L266.804 29.9517H253.364V46.7197H248.884ZM253.364 25.9837H268.212C270.004 25.9837 271.561 25.4931 272.884 24.5117C274.206 23.5304 275.23 22.2504 275.956 20.6717C276.681 19.0504 277.044 17.3437 277.044 15.5517C277.044 13.7171 276.617 12.0317 275.764 10.4957C274.953 8.91706 273.844 7.65839 272.436 6.71973C271.07 5.73839 269.534 5.24773 267.828 5.24773H253.364V25.9837ZM303.2 47.3597C300.811 47.3597 298.592 46.9117 296.544 46.0157C294.496 45.0771 292.725 43.8184 291.232 42.2397C289.739 40.6184 288.565 38.7624 287.712 36.6717C286.901 34.5811 286.496 32.3411 286.496 29.9517C286.496 26.8371 287.2 23.9784 288.608 21.3757C290.059 18.7731 292.043 16.7037 294.56 15.1677C297.077 13.5891 299.936 12.7997 303.136 12.7997C306.421 12.7997 309.28 13.5891 311.712 15.1677C314.187 16.7464 316.128 18.8371 317.536 21.4397C318.944 23.9997 319.648 26.8157 319.648 29.8877C319.648 30.2291 319.648 30.5704 319.648 30.9117C319.648 31.2104 319.627 31.4451 319.584 31.6157H291.04C291.253 34.0051 291.915 36.1384 293.024 38.0157C294.176 39.8504 295.648 41.3224 297.44 42.4317C299.275 43.4984 301.259 44.0317 303.392 44.0317C305.568 44.0317 307.616 43.4771 309.536 42.3677C311.499 41.2584 312.864 39.8077 313.632 38.0157L317.408 39.0397C316.725 40.6184 315.68 42.0477 314.272 43.3277C312.864 44.6077 311.2 45.6104 309.28 46.3357C307.403 47.0184 305.376 47.3597 303.2 47.3597ZM290.912 28.4797H315.552C315.381 26.0477 314.72 23.9144 313.568 22.0797C312.459 20.2451 310.987 18.8157 309.152 17.7917C307.36 16.7251 305.376 16.1917 303.2 16.1917C301.024 16.1917 299.04 16.7251 297.248 17.7917C295.456 18.8157 293.984 20.2664 292.832 22.1437C291.723 23.9784 291.083 26.0904 290.912 28.4797ZM323.674 37.1197C323.674 35.0291 324.272 33.2371 325.467 31.7437C326.661 30.2077 328.304 29.0344 330.395 28.2237C332.528 27.3704 334.981 26.9437 337.755 26.9437C339.376 26.9437 341.061 27.0717 342.811 27.3277C344.56 27.5837 346.117 27.9677 347.483 28.4797V25.6637C347.483 22.8477 346.651 20.6077 344.987 18.9437C343.323 17.2797 341.019 16.4477 338.075 16.4477C336.283 16.4477 334.512 16.7891 332.763 17.4717C331.056 18.1117 329.264 19.0717 327.387 20.3517L325.723 17.2797C327.899 15.7864 330.032 14.6771 332.123 13.9517C334.213 13.1837 336.347 12.7997 338.523 12.7997C342.619 12.7997 345.861 13.9731 348.251 16.3197C350.64 18.6664 351.835 21.9091 351.835 26.0477V41.4717C351.835 42.0691 351.963 42.5171 352.219 42.8157C352.475 43.0717 352.88 43.2211 353.435 43.2637V46.7197C352.965 46.7624 352.56 46.8051 352.219 46.8477C351.877 46.8904 351.621 46.8904 351.451 46.8477C350.384 46.8051 349.573 46.4637 349.019 45.8237C348.464 45.1837 348.165 44.5011 348.123 43.7757L348.059 41.3437C346.565 43.2637 344.624 44.7571 342.235 45.8237C339.845 46.8477 337.413 47.3597 334.939 47.3597C332.805 47.3597 330.864 46.9117 329.115 46.0157C327.408 45.0771 326.064 43.8397 325.083 42.3037C324.144 40.7251 323.674 38.9971 323.674 37.1197ZM346.011 39.6797C346.48 39.0824 346.843 38.5064 347.099 37.9517C347.355 37.3971 347.483 36.9064 347.483 36.4797V31.6157C346.032 31.0611 344.517 30.6344 342.939 30.3357C341.403 30.0371 339.845 29.8877 338.267 29.8877C335.152 29.8877 332.635 30.5064 330.715 31.7437C328.795 32.9811 327.835 34.6664 327.835 36.7997C327.835 38.0371 328.155 39.2104 328.795 40.3197C329.435 41.3864 330.373 42.2824 331.611 43.0077C332.848 43.6904 334.299 44.0317 335.963 44.0317C338.053 44.0317 339.995 43.6264 341.787 42.8157C343.621 42.0051 345.029 40.9597 346.011 39.6797ZM361.43 -0.000274658H365.782V39.1677C365.782 40.8317 366.08 41.9197 366.678 42.4317C367.275 42.9437 368 43.1997 368.854 43.1997C369.622 43.1997 370.39 43.1144 371.158 42.9437C371.926 42.7731 372.587 42.6024 373.142 42.4317L373.91 45.9517C373.099 46.2931 372.096 46.5704 370.902 46.7837C369.75 46.9971 368.747 47.1037 367.894 47.1037C365.931 47.1037 364.352 46.5277 363.158 45.3757C362.006 44.2237 361.43 42.6451 361.43 40.6397V-0.000274658Z" fill="#444141"/>
<path d="M192.575 47.3597C190.186 47.3597 187.967 46.9117 185.919 46.0157C183.871 45.0771 182.1 43.8184 180.607 42.2397C179.114 40.6184 177.94 38.7624 177.087 36.6717C176.276 34.5811 175.871 32.3411 175.871 29.9517C175.871 26.8371 176.575 23.9784 177.983 21.3757C179.434 18.7731 181.418 16.7037 183.935 15.1677C186.452 13.5891 189.311 12.7997 192.511 12.7997C195.796 12.7997 198.655 13.5891 201.087 15.1677C203.562 16.7464 205.503 18.8371 206.911 21.4397C208.319 23.9997 209.023 26.8157 209.023 29.8877C209.023 30.2291 209.023 30.5704 209.023 30.9117C209.023 31.2104 209.002 31.4451 208.959 31.6157H180.415C180.628 34.0051 181.29 36.1384 182.399 38.0157C183.551 39.8504 185.023 41.3224 186.815 42.4317C188.65 43.4984 190.634 44.0317 192.767 44.0317C194.943 44.0317 196.991 43.4771 198.911 42.3677C200.874 41.2584 202.239 39.8077 203.007 38.0157L206.783 39.0397C206.1 40.6184 205.055 42.0477 203.647 43.3277C202.239 44.6077 200.575 45.6104 198.655 46.3357C196.778 47.0184 194.751 47.3597 192.575 47.3597ZM180.287 28.4797H204.927C204.756 26.0477 204.095 23.9144 202.943 22.0797C201.834 20.2451 200.362 18.8157 198.527 17.7917C196.735 16.7251 194.751 16.1917 192.575 16.1917C190.399 16.1917 188.415 16.7251 186.623 17.7917C184.831 18.8157 183.359 20.2664 182.207 22.1437C181.098 23.9784 180.458 26.0904 180.287 28.4797Z" fill="#F51503"/>
<path d="M0 54.7197H173.402V57.9197H0V54.7197ZM210.938 54.7197H373.845V57.9197H210.938V54.7197Z" fill="#444141"/>
<path d="M173.375 54.7197H210.943V57.9197H173.375V54.7197Z" fill="#F51503"/>
</svg>
