<svg width="16" height="16" viewBox="0 0 16 16" fill="none" xmlns="http://www.w3.org/2000/svg">
<g clip-path="url(#clip0_475_4438)">
<path d="M11.6668 4.33337H11.6735M4.66683 1.33337H11.3335C13.1744 1.33337 14.6668 2.82576 14.6668 4.66671V11.3334C14.6668 13.1743 13.1744 14.6667 11.3335 14.6667H4.66683C2.82588 14.6667 1.3335 13.1743 1.3335 11.3334V4.66671C1.3335 2.82576 2.82588 1.33337 4.66683 1.33337ZM10.6668 7.58004C10.7491 8.13487 10.6543 8.70152 10.396 9.19938C10.1377 9.69725 9.72893 10.101 9.22791 10.3532C8.7269 10.6053 8.15913 10.6931 7.60535 10.604C7.05158 10.5149 6.54 10.2534 6.14339 9.85681C5.74677 9.4602 5.48532 8.94862 5.39621 8.39485C5.3071 7.84108 5.39487 7.2733 5.64705 6.77229C5.89922 6.27128 6.30295 5.86253 6.80082 5.6042C7.29868 5.34587 7.86533 5.2511 8.42016 5.33337C8.98611 5.4173 9.51006 5.68102 9.91462 6.08558C10.3192 6.49014 10.5829 7.01409 10.6668 7.58004Z" stroke="#1E1E1E" stroke-width="2" stroke-linecap="round" stroke-linejoin="round"/>
</g>
<defs>
<clipPath id="clip0_475_4438">
<rect width="16" height="16" fill="white"/>
</clipPath>
</defs>
</svg>
