<svg width="16" height="16" viewBox="0 0 16 16" fill="none" xmlns="http://www.w3.org/2000/svg">
<path d="M14.6634 6.68032C13.2887 6.68319 11.9453 6.29068 10.8268 5.55723V10.677C10.8268 11.6254 10.5112 12.5508 9.92073 13.3301C9.33024 14.1093 8.49606 14.7053 7.52754 15.0376C6.55901 15.37 5.503 15.4244 4.50011 15.1895C3.49722 14.9545 2.59743 14.4474 1.91634 13.734C1.23524 13.0206 0.813467 12.1296 0.697869 11.187C0.582271 10.2444 0.788473 9.29323 1.27898 8.45951C1.7695 7.62578 2.52869 6.94964 3.45348 6.51988C4.37827 6.09013 5.41865 5.93255 6.44341 6.06148V8.63714C5.97477 8.50248 5.47176 8.50535 5.00624 8.6486C4.54073 8.79185 4.13457 9.06689 3.85026 9.43075C3.56595 9.79461 3.41286 10.2358 3.41599 10.6885C3.41911 11.1412 3.57845 11.5767 3.86901 11.9405C4.15957 12.3044 4.56885 12.5737 5.03749 12.7112C5.50613 12.8487 6.00914 12.8487 6.47465 12.7083C6.94017 12.568 7.34945 12.2958 7.63689 11.9319C7.92432 11.5681 8.08053 11.1269 8.08053 10.677V0.666626H10.8299C10.8268 0.878638 10.8486 1.09352 10.8893 1.30266C10.9861 1.76966 11.1829 2.21661 11.4735 2.61198C11.7641 3.00736 12.139 3.34543 12.5732 3.60328C13.195 3.9786 13.9229 4.17915 14.6665 4.17915V6.68319L14.6634 6.68032Z" fill="#1E1E1E"/>
</svg>
