<svg width="16" height="16" viewBox="0 0 16 16" fill="none" xmlns="http://www.w3.org/2000/svg">
<path d="M7.25075 0.25C6.02535 0.249869 4.82138 0.57142 3.75923 1.1825C2.69707 1.79359 1.81393 2.6728 1.19812 3.73222C0.582306 4.79164 0.255396 5.99416 0.250066 7.21955C0.244732 8.44494 0.561176 9.6503 1.16775 10.715L0.537746 12.927C0.497366 13.0706 0.495966 13.2224 0.533696 13.3668C0.571426 13.5111 0.646926 13.6428 0.752426 13.7483C0.857926 13.8538 0.989616 13.9293 1.13397 13.967C1.27832 14.0048 1.43012 14.0034 1.57375 13.963L3.78575 13.333C4.71722 13.8634 5.75806 14.1728 6.828 14.2373C7.89795 14.3018 8.96843 14.1198 9.9569 13.7052C10.9454 13.2906 11.8254 12.6546 12.5292 11.8461C13.233 11.0376 13.7417 10.0783 14.0161 9.04214C14.2906 8.00598 14.3234 6.92063 14.112 5.86978C13.9007 4.81893 13.4508 3.83066 12.7971 2.98115C12.1435 2.13165 11.3034 1.44361 10.3418 0.97009C9.3802 0.49656 8.32264 0.2502 7.25075 0.25ZM7.25075 13.69C6.09252 13.6927 4.95533 13.3806 3.96075 12.787C3.91733 12.7649 3.86946 12.7529 3.82075 12.752H3.74375L1.41975 13.417C1.37226 13.4297 1.32226 13.4298 1.27476 13.417C1.22727 13.4043 1.18396 13.3793 1.14919 13.3446C1.11443 13.3098 1.08943 13.2665 1.07671 13.219C1.06399 13.1715 1.06401 13.1215 1.07675 13.074L1.74175 10.75C1.76144 10.6768 1.75137 10.5988 1.71375 10.533C0.989376 9.3106 0.689646 7.88289 0.861226 6.47235C1.03281 5.06182 1.66608 3.74763 2.66238 2.73451C3.65869 1.72138 4.96209 1.06621 6.36956 0.87104C7.77702 0.67587 9.20952 0.95167 10.4439 1.65547C11.6783 2.35927 12.6453 3.45156 13.1942 4.76219C13.7431 6.07281 13.8431 7.52819 13.4787 8.9016C13.1143 10.275 12.3059 11.4893 11.1794 12.3554C10.053 13.2215 8.67168 13.6907 7.25075 13.69ZM10.7857 8.545L9.3577 7.733C9.22754 7.65841 9.07986 7.61976 8.9298 7.62099C8.77975 7.62222 8.63272 7.66329 8.50375 7.74L7.53775 8.321C6.95587 8.01921 6.48153 7.54488 6.17975 6.963L6.76075 5.997C6.83746 5.86803 6.87853 5.721 6.87976 5.57095C6.88099 5.42089 6.84234 5.27321 6.76775 5.143L5.95575 3.715C5.88832 3.59821 5.79141 3.50118 5.67471 3.43362C5.558 3.36605 5.4256 3.33032 5.29075 3.33C4.69788 3.33 4.12918 3.56503 3.7093 3.9836C3.28942 4.40217 3.0526 4.97013 3.05075 5.563C3.04983 6.33576 3.20124 7.10112 3.49633 7.81533C3.79141 8.52953 4.22438 9.17856 4.77048 9.7253C5.31659 10.2721 5.9651 10.7058 6.67895 11.0017C7.3928 11.2977 8.15799 11.45 8.93075 11.45H8.93775C9.5306 11.4481 10.0986 11.2113 10.5171 10.7914C10.9357 10.3716 11.1708 9.8029 11.1707 9.21C11.1704 9.07515 11.1347 8.94275 11.0671 8.82604C10.9996 8.70934 10.9025 8.61242 10.7857 8.545ZM8.93775 10.89H8.93075C7.51915 10.8881 6.16601 10.3261 5.16852 9.3273C4.17102 8.32848 3.61075 6.9746 3.61075 5.563C3.6126 5.11865 3.79042 4.69313 4.10528 4.37958C4.42014 4.06603 4.8464 3.89 5.29075 3.89C5.32659 3.89049 5.36167 3.90047 5.3924 3.91891C5.42314 3.93735 5.44845 3.96361 5.46575 3.995L6.28475 5.423C6.30864 5.46706 6.32116 5.51638 6.32116 5.5665C6.32116 5.61662 6.30864 5.66594 6.28475 5.71L5.62675 6.802C5.60251 6.84039 5.58849 6.88434 5.58604 6.92968C5.58359 6.97501 5.59278 7.02022 5.61275 7.061C5.9773 7.8733 6.62745 8.52345 7.43975 8.888C7.48053 8.90796 7.52574 8.91716 7.57107 8.91471C7.61641 8.91226 7.66036 8.89824 7.69875 8.874L8.79075 8.216C8.83481 8.19211 8.88413 8.17959 8.93425 8.17959C8.98437 8.17959 9.03369 8.19211 9.07775 8.216L10.5057 9.035C10.5371 9.0523 10.5634 9.07761 10.5818 9.10834C10.6003 9.13908 10.6103 9.17416 10.6107 9.21C10.6108 9.6544 10.4347 10.0806 10.1212 10.3955C9.8076 10.7103 9.3821 10.8881 8.93775 10.89Z"  stroke="#1E1E1E" stroke-width="1.2"/>
</svg>
