<svg width="36" height="17" viewBox="0 0 36 17" fill="none" xmlns="http://www.w3.org/2000/svg">
<path d="M22.0915 1H26.6111C27.6003 1 28.5798 1.19401 29.4937 1.57091C30.4077 1.94783 31.2381 2.50028 31.9375 3.19672C32.637 3.89317 33.1918 4.71997 33.5703 5.62991C33.9489 6.53987 34.1438 7.51514 34.1438 8.50004C34.1438 9.48501 33.9489 10.4603 33.5703 11.3702C33.1918 12.2803 32.637 13.107 31.9375 13.8034C31.2381 14.4999 30.4077 15.0523 29.4937 15.4292C28.5798 15.8061 27.6003 16.0002 26.6111 16.0002H22.0915M13.0523 16.0002H8.53268C7.54346 16.0002 6.56396 15.8061 5.65004 15.4292C4.73614 15.0523 3.90574 14.4999 3.20627 13.8034C1.79362 12.3969 1 10.4892 1 8.50004C1 6.51093 1.79362 4.60325 3.20627 3.19672C4.61892 1.79019 6.53489 1 8.53268 1H13.0523" stroke="#1E1E1E" stroke-width="2" stroke-linecap="round" stroke-linejoin="round"/>
<path d="M11.546 8.5H23.5983" stroke="#1E1E1E" stroke-width="2" stroke-linecap="round" stroke-linejoin="round"/>
</svg>
